<svg width="109" height="26" viewBox="0 0 109 26" fill="none" xmlns="http://www.w3.org/2000/svg">
<path fill-rule="evenodd" clip-rule="evenodd" d="M24 13C24 19.0751 19.0751 24 13 24C6.92487 24 2 19.0751 2 13C2 6.92487 6.92487 2 13 2C19.0751 2 24 6.92487 24 13ZM26 13C26 20.1797 20.1797 26 13 26C5.8203 26 0 20.1797 0 13C0 5.8203 5.8203 0 13 0C20.1797 0 26 5.8203 26 13ZM19 13C19 16.3137 16.3137 19 13 19C9.68629 19 7 16.3137 7 13C7 9.68629 9.68629 7 13 7C16.3137 7 19 9.68629 19 13ZM21 13C21 17.4183 17.4183 21 13 21C8.58172 21 5 17.4183 5 13C5 8.58172 8.58172 5 13 5C17.4183 5 21 8.58172 21 13ZM17 13C17 15.2091 15.2091 17 13 17C10.7909 17 9 15.2091 9 13C9 10.7909 10.7909 9 13 9C15.2091 9 17 10.7909 17 13ZM45.103 24.1537C46.2439 24.6944 47.6155 24.9647 49.2176 24.9647C51.0382 24.9647 52.6767 24.5886 54.1332 23.8364C55.5897 23.0606 56.7428 21.9911 57.5924 20.6276C58.442 19.2407 58.8668 17.6422 58.8668 15.8322C58.8668 13.9751 58.442 12.3648 57.5924 11.0014C56.767 9.63799 55.6261 8.58016 54.1696 7.82793C52.7374 7.05219 51.0867 6.66432 49.2176 6.66432C47.5912 6.66432 46.2075 6.89939 45.0666 7.36953C43.9257 7.83968 43.0033 8.49788 42.2993 9.34415C41.5953 10.1669 41.0734 11.1307 40.7336 12.2355V0H36V24.5769H40.4059C40.4787 24.0362 40.5515 23.3427 40.6243 22.4965C40.6972 21.6267 40.7336 20.8157 40.7336 20.0635V18.8877C40.7455 18.927 40.7576 18.9663 40.77 19.0056C41.1098 20.0635 41.6317 21.0508 42.3357 21.9676C43.0397 22.8608 43.9621 23.5896 45.103 24.1537ZM40.7336 15.8322C40.7336 14.6333 41.0127 13.6225 41.5711 12.7997C42.1536 11.9535 42.9669 11.307 44.0107 10.8604C45.0545 10.4137 46.2803 10.1904 47.6883 10.1904C49.7031 10.1904 51.2567 10.7076 52.349 11.7419C53.4657 12.7762 54.024 14.1396 54.024 15.8322C54.024 16.9605 53.757 17.9478 53.2229 18.7941C52.7132 19.6168 51.9849 20.2633 51.0382 20.7334C50.0915 21.2036 48.9748 21.4386 47.6883 21.4386C46.2561 21.4386 45.0181 21.2036 43.9743 20.7334C42.9304 20.2633 42.1294 19.6051 41.5711 18.7588C41.0127 17.9126 40.7336 16.937 40.7336 15.8322ZM83.4501 18.7588H78.8622C78.5709 19.5581 77.9155 20.2163 76.8959 20.7334C75.9007 21.2271 74.6505 21.4739 73.1455 21.4739C71.7861 21.4739 70.6088 21.2623 69.6135 20.8392C68.6425 20.4161 67.8657 19.8401 67.2831 19.1114C66.7248 18.3827 66.3849 17.5717 66.2636 16.6784H83.5229C83.6443 14.3982 83.3166 12.5294 82.5398 11.0719C81.7873 9.59097 80.6221 8.48613 79.0442 7.7574C77.4664 7.02868 75.488 6.66432 73.1091 6.66432C70.7787 6.66432 68.7396 7.02868 66.9918 7.7574C65.2683 8.48613 63.9211 9.54396 62.9501 10.9309C61.9791 12.2943 61.4936 13.9398 61.4936 15.8674C61.4936 17.795 61.9912 19.4405 62.9865 20.8039C63.9818 22.1674 65.3654 23.2134 67.1375 23.9422C68.9095 24.6474 70.9486 25 73.2547 25C75.3181 25 77.0658 24.7297 78.498 24.189C79.9303 23.6483 81.059 22.9078 81.8844 21.9676C82.734 21.0273 83.2559 19.9577 83.4501 18.7588ZM68.6304 11.2835C69.7227 10.5313 71.1428 10.1551 72.8906 10.1551C74.6626 10.1551 76.0584 10.5078 77.078 11.213C78.1218 11.8947 78.7044 12.8232 78.8258 13.9986H66.5185C66.834 12.9173 67.538 12.0122 68.6304 11.2835ZM87.4093 0H92.1429V24.5769H87.4093V0ZM99.6057 7.05219H94.9449V10.6135H99.6057V24.5769H104.339V10.6135H109V7.05219H104.339V2.2567H99.6057V7.05219Z" fill="#38214A"/>
</svg>
